<?xml version="1.0" encoding="utf-8"?>
<!-- Svg Vector Icons : http://www.onlinewebfonts.com/icon -->
<!DOCTYPE svg PUBLIC "-//W3C//DTD SVG 1.1//EN" "http://www.w3.org/Graphics/SVG/1.1/DTD/svg11.dtd">
<svg version="1.1" xmlns="http://www.w3.org/2000/svg" xmlns:xlink="http://www.w3.org/1999/xlink" x="0px" y="0px" viewBox="0 0 1000 1000" enable-background="new 0 0 1000 1000" xml:space="preserve">
<metadata> Svg Vector Icons : http://www.onlinewebfonts.com/icon </metadata>
<g><g transform="translate(0.000000,511.000000) scale(0.100000,-0.100000)"><path d="M6270.9,4996.9c-828.8-79.3-1716-436.3-2386.1-960.3c-73.1-56.4-137.8-102.3-148.2-102.3c-10.4,0-68.9,27.1-131.5,60.5c-442.6,238-964.5,160.7-1321.4-198.3c-438.4-438.4-446.7-1114.8-18.8-1557.3l93.9-96l-83.5-217.1c-158.7-409.2-321.5-1020.8-283.9-1070.9c10.4-14.6,71-89.8,135.7-164.9c350.7-415.4,476-989.5,329.8-1517.7c-45.9-171.2-181.6-465.5-242.2-530.2c-23-23-507.3-434.2-1077.2-916.5C365.1-2923.3,100-3159.2,100-3192.6c0-60.6,1536.5-1599.1,1599.1-1599.1c31.3,0,254.7,250.5,812.1,914.3c423.8,501,835,989.5,914.4,1081.4c121.1,144.1,167,181.6,298.5,246.3c265.1,129.4,438.4,167,759.9,169.1c204.6,0,317.3-10.4,415.4-37.6c302.7-83.5,530.2-202.5,736.9-388.3l125.3-112.7l242.1,48c1031.3,198.3,2052.1,805.8,2751.4,1636.7c1020.8,1210.8,1392.4,2768.1,979.1,4083.3c-150.3,471.8-400.8,876.8-770.3,1242.1c-363.2,361.1-718.1,580.3-1194.1,739C7325.1,4980.2,6753.1,5042.9,6270.9,4996.9z M7176.9,4802.8c407.1-64.7,889.3-252.6,1235.9-484.3c643-428,1081.4-1098.1,1263-1928.9c31.3-144,37.6-267.2,37.6-668c-2.1-450.9-6.3-511.5-56.4-751.5C9462.8,66.1,9011.9-743.9,8320.9-1424.5c-609.6-603.3-1306.8-1004.1-2100.1-1208.7c-152.4-39.6-306.9-71-344.5-71c-60.5,0-229.6,162.8-1876.8,1809.9c-1361.1,1361.1-1812,1824.6-1812,1860c0,108.6,167,678.5,281.8,960.3c20.9,50.1,48,85.6,60.5,79.3c231.7-104.4,306.9-125.3,471.8-133.6c100.2-4.2,231.7,2.1,296.4,14.6c269.3,56.4,576.2,269.3,726.5,503.1c85.6,135.7,160.8,350.7,177.4,521.9c25.1,250.5-68.9,559.5-240.1,787l-83.5,108.5l215,154.5c728.6,528.2,1507.2,822.5,2300.5,868.4C6625.8,4842.5,7003.6,4829.9,7176.9,4802.8z M3252.2,3934.4c288.1-54.3,542.8-256.8,672.2-536.5c91.9-192.1,106.5-471.8,39.7-691c-114.8-382-463.4-634.6-878.9-636.7c-219.2-2.1-365.3,39.7-536.5,150.3c-392.5,256.8-528.2,762-323.6,1202.4C2404.7,3802.9,2828.5,4015.8,3252.2,3934.4z M3266.9-464.2c-37.6-35.5-672.2-565.7-676.4-563.6c-2.1,2.1,14.6,71,37.6,150.3c81.4,283.9,75.2,655.5-14.6,1054.2c-8.3,37.6,89.8-50.1,325.7-290.2C3122.8-301.3,3271-457.9,3266.9-464.2z M3863.9-1029.9l436.3-436.3l-238-279.7c-131.5-154.5-340.3-400.8-463.4-551.1c-125.3-148.2-603.3-720.2-1064.7-1267.2L1697-4560l-684.7,682.6l-682.6,682.7l66.8,56.3c37.6,29.2,730.7,613.8,1540.6,1298.5C2747-1157.2,3413-597.8,3419.3-595.7C3425.5-595.7,3625.9-791.9,3863.9-1029.9z M4795-1961l342.4-342.4l-144,43.8c-200.4,60.5-784.9,64.7-987.4,8.4c-73.1-20.9-133.6-35.5-137.8-31.3c-8.3,10.4,553.2,663.9,569.9,663.9C4446.3-1618.6,4607.1-1773.1,4795-1961z"/></g></g>
</svg>