<?xml version="1.0" encoding="iso-8859-1"?>
<!-- Generator: Adobe Illustrator 19.0.0, SVG Export Plug-In . SVG Version: 6.00 Build 0)  -->
<svg version="1.1" id="Layer_1" xmlns="http://www.w3.org/2000/svg" xmlns:xlink="http://www.w3.org/1999/xlink" width="512px" height="512px"
	 viewBox="0 0 512 512" style="enable-background:new 0 0 512 512;" xml:space="preserve">
<circle style="fill:#366796;" cx="256" cy="256" r="256"/>
<path style="fill:#273B7A;" d="M235.241,434.683l72.301,72.126c115.257-23.561,202.295-124.578,204.402-246.296L350.015,98.775
	L235.241,434.683z"/>
<path style="fill:#FF7F4F;" d="M124.657,202.519c0-79.686,51.657-144.284,131.341-144.282c79.686,0,131.343,64.598,131.341,144.282
	c0,79.686-51.655,131.343-131.343,131.343C176.316,333.862,124.657,282.205,124.657,202.519z"/>
<path style="fill:#E03A00;" d="M387.341,202.519c0-79.588-51.533-144.118-131.053-144.275v275.613
	C335.81,333.731,387.343,282.107,387.341,202.519z"/>
<path style="fill:#FFEDB5;" d="M321.443,319.462c0,0-44.78,20.616-39.812,58.914l-0.04-0.659l6.47,43.158
	c0,11.273-9.928,20.411-22.176,20.411h-14.308c-12.247,0-22.176-9.138-22.176-20.411l6.47-43.158
	c2.172-38.519-45.309-58.256-45.309-58.256H321.443z"/>
<path style="fill:#FEE187;" d="M321.443,319.462h-65.155v121.825h9.595c12.248,0,22.176-9.138,22.176-20.411l-6.47-43.158
	l0.04,0.659C276.663,340.077,321.443,319.462,321.443,319.462z"/>
<g>
</g>
<g>
</g>
<g>
</g>
<g>
</g>
<g>
</g>
<g>
</g>
<g>
</g>
<g>
</g>
<g>
</g>
<g>
</g>
<g>
</g>
<g>
</g>
<g>
</g>
<g>
</g>
<g>
</g>
</svg>
